<svg width="77" height="77" viewBox="0 0 77 77" fill="none" xmlns="http://www.w3.org/2000/svg">
<g clip-path="url(#clip0_211_289)">
<path d="M38.5 0.5C59.4868 0.5 76.5 17.5132 76.5 38.5C76.5 59.4868 59.4868 76.5 38.5 76.5C17.5132 76.5 0.5 59.4868 0.5 38.5C0.5 17.5132 17.5132 0.5 38.5 0.5Z" fill="white" stroke="#949494"/>
<path d="M37.0416 39.9582H29.75C29.3368 39.9582 28.9907 39.8182 28.7116 39.5382C28.4326 39.2582 28.2926 38.9121 28.2916 38.4998C28.2907 38.0876 28.4307 37.7415 28.7116 37.4615C28.9926 37.1815 29.3387 37.0415 29.75 37.0415H37.0416V29.7498C37.0416 29.3366 37.1816 28.9905 37.4616 28.7115C37.7416 28.4325 38.0877 28.2925 38.5 28.2915C38.9122 28.2905 39.2588 28.4305 39.5398 28.7115C39.8207 28.9925 39.9602 29.3386 39.9583 29.7498V37.0415H47.25C47.6632 37.0415 48.0098 37.1815 48.2898 37.4615C48.5698 37.7415 48.7093 38.0876 48.7083 38.4998C48.7073 38.9121 48.5673 39.2587 48.2883 39.5396C48.0093 39.8206 47.6632 39.9601 47.25 39.9582H39.9583V47.2498C39.9583 47.663 39.8183 48.0096 39.5383 48.2896C39.2583 48.5696 38.9122 48.7091 38.5 48.7082C38.0877 48.7072 37.7416 48.5672 37.4616 48.2882C37.1816 48.0091 37.0416 47.663 37.0416 47.2498V39.9582Z" fill="#6F62E5"/>
</g>
<defs>
<clipPath id="clip0_211_289">
<rect width="77" height="77" fill="white"/>
</clipPath>
</defs>
</svg>
