<svg width="77" height="77" viewBox="0 0 77 77" fill="none" xmlns="http://www.w3.org/2000/svg">
<rect width="77" height="77" rx="38.5" fill="white"/>
<path fill-rule="evenodd" clip-rule="evenodd" d="M42.2931 27.5186C42.4979 27.7237 42.613 28.0017 42.613 28.2915C42.613 28.5814 42.4979 28.8594 42.2931 29.0644L33.0123 38.3453C32.9783 38.3791 32.9514 38.4194 32.933 38.4637C32.9146 38.508 32.9052 38.5554 32.9052 38.6034C32.9052 38.6513 32.9146 38.6988 32.933 38.7431C32.9514 38.7874 32.9783 38.8277 33.0123 38.8615L42.2931 48.1424C42.4863 48.3497 42.5915 48.6239 42.5865 48.9073C42.5815 49.1906 42.4667 49.461 42.2663 49.6614C42.0659 49.8618 41.7956 49.9766 41.5122 49.9816C41.2289 49.9866 40.9546 49.8814 40.7473 49.6882L31.4665 40.4103C31.2294 40.1733 31.0414 39.8919 30.9132 39.5823C30.7849 39.2726 30.7189 38.9407 30.7189 38.6056C30.7189 38.2704 30.7849 37.9385 30.9132 37.6289C31.0414 37.3192 31.2294 37.0379 31.4665 36.8009L40.7458 27.5186C40.9509 27.3138 41.2289 27.1987 41.5187 27.1987C41.8086 27.1987 42.088 27.3138 42.2931 27.5186Z" fill="black"/>
</svg>
