<svg width="45" height="45" viewBox="0 0 45 45" fill="none" xmlns="http://www.w3.org/2000/svg">
<rect width="45" height="45" rx="22.5" fill="white"/>
<path d="M27.8306 23.0306L20.3306 30.5306C20.2609 30.6002 20.1782 30.6555 20.0871 30.6932C19.9961 30.7309 19.8985 30.7503 19.8 30.7503C19.7014 30.7503 19.6039 30.7309 19.5128 30.6932C19.4218 30.6555 19.339 30.6002 19.2694 30.5306C19.1997 30.4609 19.1444 30.3781 19.1067 30.2871C19.069 30.1961 19.0496 30.0985 19.0496 29.9999C19.0496 29.9014 19.069 29.8038 19.1067 29.7128C19.1444 29.6217 19.1997 29.539 19.2694 29.4693L26.2397 22.4999L19.2694 15.5306C19.1286 15.3898 19.0496 15.199 19.0496 14.9999C19.0496 14.8009 19.1286 14.61 19.2694 14.4693C19.4101 14.3286 19.601 14.2495 19.8 14.2495C19.999 14.2495 20.1899 14.3286 20.3306 14.4693L27.8306 21.9693C27.9003 22.039 27.9557 22.1217 27.9934 22.2127C28.0311 22.3038 28.0506 22.4014 28.0506 22.4999C28.0506 22.5985 28.0311 22.6961 27.9934 22.7871C27.9557 22.8782 27.9003 22.9609 27.8306 23.0306Z" fill="black"/>
</svg>
