<svg width="77" height="77" viewBox="0 0 77 77" fill="none" xmlns="http://www.w3.org/2000/svg">
<rect width="77" height="77" rx="38.5" fill="#6F62E5"/>
<path fill-rule="evenodd" clip-rule="evenodd" d="M34.7069 27.3116C34.912 27.1067 35.19 26.9917 35.4798 26.9917C35.7697 26.9917 36.0476 27.1067 36.2527 27.3116L45.5336 36.5909C45.7706 36.8279 45.9586 37.1093 46.0869 37.4189C46.2151 37.7286 46.2811 38.0605 46.2811 38.3956C46.2811 38.7308 46.2151 39.0627 46.0869 39.3723C45.9586 39.682 45.7706 39.9633 45.5336 40.2003L36.2542 49.4812C36.0468 49.6744 35.7726 49.7795 35.4893 49.7745C35.2059 49.7695 34.9355 49.6547 34.7352 49.4544C34.5348 49.254 34.42 48.9836 34.415 48.7002C34.41 48.4169 34.5152 48.1427 34.7084 47.9353L43.9892 38.6545C44.0231 38.6206 44.0501 38.5804 44.0685 38.5361C44.0868 38.4918 44.0963 38.4443 44.0963 38.3964C44.0963 38.3484 44.0868 38.3009 44.0685 38.2566C44.0501 38.2123 44.0231 38.1721 43.9892 38.1382L34.7069 28.8574C34.5021 28.6523 34.387 28.3743 34.387 28.0845C34.387 27.7946 34.5021 27.5166 34.7069 27.3116Z" fill="white"/>
</svg>
