<svg width="77" height="77" viewBox="0 0 77 77" fill="none" xmlns="http://www.w3.org/2000/svg">
<rect width="77" height="77" rx="38.5" fill="#F7EAFC"/>
<path d="M32.6667 47.1769C32.9097 47.2012 33.147 47.2197 33.3784 47.2323C33.6097 47.245 33.8586 47.2508 34.125 47.2498C34.3914 47.2489 34.6408 47.243 34.8731 47.2323C35.1055 47.2216 35.3422 47.2032 35.5834 47.1769V50.1665H50.1667V35.5832H47.1771C47.2014 35.3401 47.2199 35.1029 47.2325 34.8715C47.2452 34.6401 47.251 34.3912 47.25 34.1248C47.249 33.8585 47.2432 33.6091 47.2325 33.3767C47.2218 33.1444 47.2034 32.9076 47.1771 32.6665H50.1667C50.9688 32.6665 51.6556 32.9523 52.2273 33.524C52.799 34.0957 53.0843 34.7821 53.0834 35.5832V50.1665C53.0834 50.9686 52.798 51.6555 52.2273 52.2271C51.6566 52.7988 50.9697 53.0841 50.1667 53.0832H35.5834C34.7813 53.0832 34.0949 52.7978 33.5242 52.2271C32.9535 51.6564 32.6677 50.9696 32.6667 50.1665V47.1769ZM34.125 44.3332C31.2813 44.3332 28.8692 43.343 26.8888 41.3625C24.9084 39.3821 23.9177 36.9696 23.9167 34.1248C23.9157 31.2801 24.9064 28.868 26.8888 26.8886C28.8711 24.9091 31.2832 23.9185 34.125 23.9165C36.9668 23.9146 39.3794 24.9053 41.3627 26.8886C43.3461 28.8719 44.3363 31.284 44.3334 34.1248C44.3304 36.9657 43.3402 39.3782 41.3627 41.3625C39.3852 43.3469 36.9727 44.3371 34.125 44.3332ZM34.125 41.4165C36.1424 41.4165 37.8622 40.7053 39.2846 39.283C40.707 37.8606 41.4177 36.1412 41.4167 34.1248C41.4157 32.1085 40.7045 30.3891 39.2831 28.9667C37.8618 27.5444 36.1424 26.8332 34.125 26.8332C32.1077 26.8332 30.3883 27.5444 28.9669 28.9667C27.5455 30.3891 26.8343 32.1085 26.8334 34.1248C26.8324 36.1412 27.5436 37.8611 28.9669 39.2844C30.3902 40.7078 32.1096 41.4185 34.125 41.4165Z" fill="#8600B9"/>
</svg>
