<svg width="35" height="35" viewBox="0 0 35 35" fill="none" xmlns="http://www.w3.org/2000/svg">
<path d="M11.974 25.1975C12.1954 25.2197 12.4117 25.2365 12.6226 25.248C12.8334 25.2596 13.0602 25.2649 13.303 25.2639C13.5457 25.2631 13.773 25.2577 13.9847 25.248C14.1965 25.2382 14.4122 25.2215 14.632 25.1975V27.922H27.922V14.632H25.1975C25.2197 14.4105 25.2365 14.1943 25.248 13.9834C25.2596 13.7726 25.2649 13.5457 25.2639 13.303C25.263 13.0603 25.2577 12.833 25.248 12.6212C25.2382 12.4095 25.2215 12.1937 25.1975 11.974H27.922C28.6529 11.974 29.2788 12.2344 29.7998 12.7554C30.3208 13.2764 30.5808 13.902 30.58 14.632V27.922C30.58 28.6529 30.3199 29.2789 29.7998 29.7998C29.2797 30.3208 28.6538 30.5808 27.922 30.58H14.632C13.9011 30.58 13.2755 30.3199 12.7554 29.7998C12.2354 29.2797 11.9749 28.6538 11.974 27.922V25.1975ZM13.303 22.606C10.7115 22.606 8.51328 21.7036 6.70851 19.8988C4.90375 18.094 4.00091 15.8955 4 13.303C3.99909 10.7105 4.90193 8.51237 6.70851 6.70852C8.51501 4.90457 10.7132 4.00183 13.303 4C15.8927 3.99827 18.0914 4.90111 19.8988 6.70852C21.7063 8.51592 22.6086 10.7141 22.606 13.303C22.6033 15.8919 21.7009 18.0905 19.8988 19.8988C18.0966 21.7072 15.8981 22.6096 13.303 22.606ZM13.303 19.948C15.1414 19.948 16.7087 19.2999 18.005 18.0037C19.3012 16.7074 19.9489 15.1405 19.948 13.303C19.9471 11.4655 19.2989 9.89857 18.0036 8.60232C16.7084 7.30616 15.1414 6.65803 13.303 6.65803C11.4646 6.65803 9.89765 7.30616 8.60231 8.60232C7.30697 9.89857 6.65885 11.4655 6.65803 13.303C6.65712 15.1405 7.30524 16.7079 8.60231 18.005C9.89939 19.3021 11.4663 19.9498 13.303 19.948Z" fill="#8600B9"/>
</svg>
