<svg width="50" height="50" viewBox="0 0 50 50" fill="none" xmlns="http://www.w3.org/2000/svg">
<rect width="50" height="50" rx="25" fill="#7164EA"/>
<path d="M37.9999 25C38.0029 25.3811 37.8871 25.7536 37.6686 26.0659C37.4501 26.3781 37.1398 26.6145 36.7808 26.7421C36.4218 26.8698 30.2877 25.2865 27.7857 27.7857C25.2815 30.2871 26.7376 36.7884 26.7376 36.7884C26.6057 37.144 26.3681 37.4507 26.0567 37.6673C25.7454 37.8839 25.3753 38 24.996 38C24.6168 38 24.2467 37.8839 23.9353 37.6673C23.624 37.4507 23.3864 37.144 23.2544 36.7884C23.2544 36.7884 24.7163 30.2888 22.2143 27.7857C19.7121 25.2824 13.2112 26.7421 13.2112 26.7421C12.8557 26.6101 12.5491 26.3724 12.3326 26.061C12.1161 25.7496 12 25.3793 12 25C12 24.6207 12.1161 24.2504 12.3326 23.939C12.5491 23.6276 12.8557 23.3899 13.2112 23.2579C13.2112 23.2579 19.7121 24.7176 22.2143 22.2143C24.7163 19.7112 23.2544 13.2116 23.2544 13.2116C23.3864 12.856 23.624 12.5493 23.9353 12.3327C24.2467 12.1161 24.6168 12 24.996 12C25.3753 12 25.7454 12.1161 26.0567 12.3327C26.3681 12.5493 26.6057 12.856 26.7376 13.2116C26.7376 13.2116 25.2815 19.7129 27.7857 22.2143C30.2877 24.7135 36.7808 23.2579 36.7808 23.2579C37.1398 23.3855 37.4501 23.6219 37.6686 23.9341C37.8871 24.2464 38.0029 24.6189 37.9999 25Z" fill="white"/>
</svg>
