<svg width="77" height="77" viewBox="0 0 77 77" fill="none" xmlns="http://www.w3.org/2000/svg">
<rect width="77" height="77" rx="38.5" fill="#EBF4F9"/>
<path d="M23.9167 51.625C23.5035 51.625 23.1573 51.485 22.8783 51.205C22.5993 50.925 22.4593 50.5789 22.4583 50.1667C22.4573 49.7544 22.5973 49.4083 22.8783 49.1283C23.1593 48.8483 23.5054 48.7083 23.9167 48.7083H53.0833C53.4965 48.7083 53.8431 48.8483 54.1231 49.1283C54.4031 49.4083 54.5426 49.7544 54.5417 50.1667C54.5407 50.5789 54.4007 50.9255 54.1217 51.2065C53.8426 51.4874 53.4965 51.6269 53.0833 51.625H23.9167ZM26.8333 47.25C26.0312 47.25 25.3448 46.9647 24.7742 46.394C24.2035 45.8233 23.9176 45.1364 23.9167 44.3333V28.2917C23.9167 27.4896 24.2025 26.8032 24.7742 26.2325C25.3458 25.6618 26.0322 25.376 26.8333 25.375H50.1667C50.9687 25.375 51.6556 25.6608 52.2273 26.2325C52.7989 26.8042 53.0843 27.4906 53.0833 28.2917V44.3333C53.0833 45.1354 52.798 45.8223 52.2273 46.394C51.6566 46.9656 50.9697 47.251 50.1667 47.25H26.8333ZM26.8333 44.3333H50.1667V28.2917H26.8333V44.3333Z" fill="#2DB2FD"/>
</svg>
