<svg width="77" height="77" viewBox="0 0 77 77" fill="none" xmlns="http://www.w3.org/2000/svg">
<g clip-path="url(#clip0_196_285)">
<path d="M77 38.5C77 17.237 59.763 0 38.5 0C17.237 0 0 17.237 0 38.5C0 59.763 17.237 77 38.5 77C59.763 77 77 59.763 77 38.5Z" fill="#E8F5FB"/>
<path d="M28.2916 28.2917C27.9049 28.2917 27.5339 28.4453 27.2604 28.7188C26.9869 28.9923 26.8333 29.3632 26.8333 29.75V42.875C26.8333 43.2618 26.9869 43.6327 27.2604 43.9062C27.5339 44.1797 27.9049 44.3333 28.2916 44.3333H48.7083C49.0951 44.3333 49.466 44.1797 49.7395 43.9062C50.013 43.6327 50.1666 43.2618 50.1666 42.875V29.75C50.1666 29.3632 50.013 28.9923 49.7395 28.7188C49.466 28.4453 49.0951 28.2917 48.7083 28.2917H28.2916ZM28.2916 25.375H48.7083C49.8686 25.375 50.9814 25.8359 51.8019 26.6564C52.6224 27.4769 53.0833 28.5897 53.0833 29.75V42.875C53.0833 44.0353 52.6224 45.1481 51.8019 45.9686C50.9814 46.7891 49.8686 47.25 48.7083 47.25H28.2916C27.1313 47.25 26.0185 46.7891 25.198 45.9686C24.3776 45.1481 23.9166 44.0353 23.9166 42.875V29.75C23.9166 28.5897 24.3776 27.4769 25.198 26.6564C26.0185 25.8359 27.1313 25.375 28.2916 25.375ZM34.125 48.7083H42.875C43.2617 48.7083 43.6327 48.862 43.9062 49.1355C44.1796 49.409 44.3333 49.7799 44.3333 50.1667C44.3333 50.5534 44.1796 50.9244 43.9062 51.1979C43.6327 51.4714 43.2617 51.625 42.875 51.625H34.125C33.7382 51.625 33.3673 51.4714 33.0938 51.1979C32.8203 50.9244 32.6666 50.5534 32.6666 50.1667C32.6666 49.7799 32.8203 49.409 33.0938 49.1355C33.3673 48.862 33.7382 48.7083 34.125 48.7083Z" fill="#729CB4"/>
</g>
<defs>
<clipPath id="clip0_196_285">
<rect width="77" height="77" fill="white"/>
</clipPath>
</defs>
</svg>
