<svg width="35" height="35" viewBox="0 0 35 35" fill="none" xmlns="http://www.w3.org/2000/svg">
<path d="M7.29169 7.29167C6.90491 7.29167 6.53398 7.44531 6.26049 7.7188C5.987 7.99229 5.83335 8.36323 5.83335 8.75V21.875C5.83335 22.2618 5.987 22.6327 6.26049 22.9062C6.53398 23.1797 6.90491 23.3333 7.29169 23.3333H27.7084C28.0951 23.3333 28.4661 23.1797 28.7396 22.9062C29.013 22.6327 29.1667 22.2618 29.1667 21.875V8.75C29.1667 8.36323 29.013 7.99229 28.7396 7.7188C28.4661 7.44531 28.0951 7.29167 27.7084 7.29167H7.29169ZM7.29169 4.375H27.7084C28.8687 4.375 29.9815 4.83594 30.8019 5.65641C31.6224 6.47688 32.0834 7.58968 32.0834 8.75V21.875C32.0834 23.0353 31.6224 24.1481 30.8019 24.9686C29.9815 25.7891 28.8687 26.25 27.7084 26.25H7.29169C6.13136 26.25 5.01857 25.7891 4.19809 24.9686C3.37762 24.1481 2.91669 23.0353 2.91669 21.875L2.91669 8.75C2.91669 7.58968 3.37762 6.47688 4.19809 5.65641C5.01857 4.83594 6.13136 4.375 7.29169 4.375ZM13.125 27.7083H21.875C22.2618 27.7083 22.6327 27.862 22.9062 28.1355C23.1797 28.409 23.3334 28.7799 23.3334 29.1667C23.3334 29.5534 23.1797 29.9244 22.9062 30.1979C22.6327 30.4714 22.2618 30.625 21.875 30.625H13.125C12.7382 30.625 12.3673 30.4714 12.0938 30.1979C11.8203 29.9244 11.6667 29.5534 11.6667 29.1667C11.6667 28.7799 11.8203 28.409 12.0938 28.1355C12.3673 27.862 12.7382 27.7083 13.125 27.7083Z" fill="#729CB4"/>
</svg>
