<svg width="31" height="31" viewBox="0 0 31 31" fill="none" xmlns="http://www.w3.org/2000/svg">
<g clip-path="url(#clip0_200_309)">
<path d="M31 15.5C31 6.93959 24.0604 0 15.5 0C6.93959 0 0 6.93959 0 15.5C0 24.0604 6.93959 31 15.5 31C24.0604 31 31 24.0604 31 15.5Z" fill="white" fill-opacity="0.28"/>
<path d="M15.5791 20.6854L15.5 20.7646L15.4129 20.6854C11.6525 17.2733 9.16665 15.0171 9.16665 12.7292C9.16665 11.1458 10.3541 9.95833 11.9375 9.95833C13.1566 9.95833 14.3441 10.75 14.7637 11.8267H16.2362C16.6558 10.75 17.8433 9.95833 19.0625 9.95833C20.6458 9.95833 21.8333 11.1458 21.8333 12.7292C21.8333 15.0171 19.3475 17.2733 15.5791 20.6854ZM19.0625 8.375C17.685 8.375 16.3629 9.01625 15.5 10.0217C14.6371 9.01625 13.315 8.375 11.9375 8.375C9.49915 8.375 7.58331 10.2829 7.58331 12.7292C7.58331 15.7137 10.275 18.16 14.3521 21.8571L15.5 22.9021L16.6479 21.8571C20.725 18.16 23.4166 15.7137 23.4166 12.7292C23.4166 10.2829 21.5008 8.375 19.0625 8.375Z" fill="white"/>
</g>
<defs>
<clipPath id="clip0_200_309">
<rect width="31" height="31" fill="white"/>
</clipPath>
</defs>
</svg>
