<svg width="35" height="35" viewBox="0 0 35 35" fill="none" xmlns="http://www.w3.org/2000/svg">
<path d="M15.3125 8.75C15.3125 8.44375 15.3125 8.29281 15.33 8.16594C15.3857 7.76499 15.5707 7.39316 15.8569 7.10692C16.1432 6.82069 16.515 6.63568 16.9159 6.58C17.0406 6.5625 17.1937 6.5625 17.5 6.5625C17.8063 6.5625 17.9572 6.5625 18.0841 6.58C18.485 6.63568 18.8568 6.82069 19.1431 7.10692C19.4293 7.39316 19.6143 7.76499 19.67 8.16594C19.6875 8.29063 19.6875 8.44375 19.6875 8.75C19.6875 9.05625 19.6875 9.20719 19.67 9.33406C19.6143 9.73501 19.4293 10.1068 19.1431 10.3931C18.8568 10.6793 18.485 10.8643 18.0841 10.92C17.9594 10.9375 17.8063 10.9375 17.5 10.9375C17.1937 10.9375 17.0428 10.9375 16.9159 10.92C16.515 10.8643 16.1432 10.6793 15.8569 10.3931C15.5707 10.1068 15.3857 9.73501 15.33 9.33406C15.3125 9.20938 15.3125 9.05625 15.3125 8.75ZM15.3125 17.5C15.3125 17.1937 15.3125 17.0428 15.33 16.9159C15.3857 16.515 15.5707 16.1432 15.8569 15.8569C16.1432 15.5707 16.515 15.3857 16.9159 15.33C17.0406 15.3125 17.1937 15.3125 17.5 15.3125C17.8063 15.3125 17.9572 15.3125 18.0841 15.33C18.485 15.3857 18.8568 15.5707 19.1431 15.8569C19.4293 16.1432 19.6143 16.515 19.67 16.9159C19.6875 17.0406 19.6875 17.1937 19.6875 17.5C19.6875 17.8063 19.6875 17.9572 19.67 18.0841C19.6143 18.485 19.4293 18.8568 19.1431 19.1431C18.8568 19.4293 18.485 19.6143 18.0841 19.67C17.9594 19.6875 17.8063 19.6875 17.5 19.6875C17.1937 19.6875 17.0428 19.6875 16.9159 19.67C16.515 19.6143 16.1432 19.4293 15.8569 19.1431C15.5707 18.8568 15.3857 18.485 15.33 18.0841C15.3125 17.9594 15.3125 17.8063 15.3125 17.5ZM15.3125 26.25C15.3125 25.9459 15.3125 25.7928 15.33 25.6659C15.386 25.2657 15.5709 24.8946 15.8567 24.6088C16.1424 24.3231 16.5135 24.1382 16.9137 24.0822C17.0428 24.0647 17.1938 24.0647 17.4978 24.0647C17.8019 24.0647 17.9572 24.0647 18.0819 24.0822C18.4821 24.1382 18.8532 24.3231 19.139 24.6088C19.4247 24.8946 19.6096 25.2657 19.6656 25.6659C19.6831 25.7928 19.6831 25.9459 19.6831 26.25C19.6831 26.5541 19.6831 26.7072 19.6656 26.8341C19.6096 27.2343 19.4247 27.6054 19.139 27.8912C18.8532 28.1769 18.4821 28.3618 18.0819 28.4178C17.955 28.4353 17.8019 28.4353 17.4978 28.4353C17.1938 28.4353 17.0406 28.4353 16.9137 28.4178C16.5135 28.3618 16.1424 28.1769 15.8567 27.8912C15.5709 27.6054 15.386 27.2343 15.33 26.8341C15.3125 26.7072 15.3125 26.5541 15.3125 26.25Z" fill="#898989"/>
</svg>
