<svg width="77" height="77" viewBox="0 0 77 77" fill="none" xmlns="http://www.w3.org/2000/svg">
<rect width="77" height="77" rx="38.5" fill="#EDE9FF"/>
<path fill-rule="evenodd" clip-rule="evenodd" d="M49.5411 26.4282L50.5721 27.4592C51.3923 28.2796 51.853 29.3922 51.853 30.5523C51.853 31.7124 51.3923 32.825 50.5721 33.6454L46.2336 37.984L50.874 42.6244C51.1449 42.8953 51.3599 43.2168 51.5065 43.5708C51.6532 43.9247 51.7287 44.3041 51.7287 44.6872C51.7287 45.0703 51.6532 45.4497 51.5065 45.8037C51.3599 46.1576 51.1449 46.4792 50.874 46.75L46.7498 50.8742C46.4789 51.1452 46.1574 51.3601 45.8034 51.5068C45.4495 51.6534 45.0701 51.7289 44.687 51.7289C44.3039 51.7289 43.9245 51.6534 43.5706 51.5068C43.2166 51.3601 42.895 51.1452 42.6242 50.8742L37.9838 46.2338L34.5377 49.6813C34.199 50.0201 33.7584 50.2384 33.2836 50.3025L27.5669 51.0754C27.344 51.1059 27.117 51.0843 26.9038 51.0125C26.6906 50.9406 26.4969 50.8204 26.3379 50.6613C26.1789 50.5021 26.0588 50.3083 25.9872 50.095C25.9155 49.8818 25.8942 49.6548 25.9248 49.4319L26.6977 43.7167C26.7619 43.2419 26.9801 42.8013 27.319 42.4625L30.7665 39.0165L26.1261 34.3761C25.8551 34.1052 25.6401 33.7836 25.4935 33.4297C25.3468 33.0757 25.2714 32.6964 25.2714 32.3133C25.2714 31.9301 25.3468 31.5508 25.4935 31.1968C25.6401 30.8429 25.8551 30.5213 26.1261 30.2504L30.2502 26.1263C30.5211 25.8553 30.8427 25.6404 31.1966 25.4937C31.5505 25.3471 31.9299 25.2716 32.313 25.2716C32.6962 25.2716 33.0755 25.3471 33.4295 25.4937C33.7834 25.6404 34.105 25.8553 34.3758 26.1263L39.0163 30.7667L43.3533 26.4282C43.7596 26.0218 44.2419 25.6995 44.7728 25.4796C45.3036 25.2597 45.8726 25.1465 46.4472 25.1465C47.0218 25.1465 47.5908 25.2597 48.1216 25.4796C48.6525 25.6995 49.1348 26.0218 49.5411 26.4282ZM44.1715 40.0475L40.0473 44.1717L40.5621 44.6879L41.5931 43.6569C41.855 43.3926 42.2079 43.2383 42.5798 43.2257C42.9516 43.2131 43.3142 43.3431 43.5934 43.589C43.8725 43.835 44.0471 44.1784 44.0813 44.5489C44.1156 44.9193 44.007 45.2889 43.7777 45.5819L43.6567 45.719L42.6256 46.75L44.6877 48.8121L48.8119 44.6879L44.1715 40.0475ZM42.3223 31.5834L29.5546 44.3511L29.0719 47.9284L32.6492 47.4442L45.4169 34.6779L42.3223 31.5834ZM32.3123 28.1898L28.1896 32.3125L30.2517 34.3761L31.2827 33.345C31.5446 33.0807 31.8975 32.9264 32.2694 32.9138C32.6412 32.9012 33.0038 33.0312 33.2829 33.2772C33.5621 33.5231 33.7367 33.8665 33.7709 34.237C33.8052 34.6075 33.6966 34.977 33.4673 35.27L33.3448 35.4071L32.3138 36.4382L32.83 36.9529L36.9542 32.8288L32.3123 28.1898ZM45.4169 28.4917L44.3858 29.5227L47.4775 32.6159L48.51 31.5848C48.7834 31.3113 48.937 30.9405 48.937 30.5538C48.937 30.1671 48.7834 29.7962 48.51 29.5227L47.479 28.4917C47.2055 28.2183 46.8346 28.0647 46.4479 28.0647C46.0612 28.0647 45.6904 28.2183 45.4169 28.4917Z" fill="#8D7FD4"/>
</svg>
