<svg width="35" height="35" viewBox="0 0 35 35" fill="none" xmlns="http://www.w3.org/2000/svg">
<path fill-rule="evenodd" clip-rule="evenodd" d="M28.5411 5.42815L29.5721 6.4592C30.3923 7.27963 30.853 8.39223 30.853 9.55232C30.853 10.7124 30.3923 11.825 29.5721 12.6454L25.2336 16.984L29.874 21.6244C30.1449 21.8953 30.3599 22.2168 30.5065 22.5708C30.6532 22.9247 30.7287 23.3041 30.7287 23.6872C30.7287 24.0703 30.6532 24.4497 30.5065 24.8037C30.3599 25.1576 30.1449 25.4792 29.874 25.75L25.7498 29.8742C25.4789 30.1452 25.1574 30.3601 24.8034 30.5068C24.4495 30.6534 24.0701 30.7289 23.687 30.7289C23.3039 30.7289 22.9245 30.6534 22.5706 30.5068C22.2166 30.3601 21.895 30.1452 21.6242 29.8742L16.9838 25.2338L13.5377 28.6813C13.199 29.0201 12.7584 29.2384 12.2836 29.3025L6.56688 30.0754C6.34396 30.1059 6.11702 30.0843 5.90381 30.0125C5.6906 29.9406 5.49691 29.8204 5.33789 29.6613C5.17887 29.5021 5.05883 29.3083 4.98717 29.095C4.9155 28.8818 4.89416 28.6548 4.9248 28.4319L5.69772 22.7167C5.76187 22.2419 5.98012 21.8013 6.31897 21.4625L9.76647 18.0165L5.12605 13.3761C4.85509 13.1052 4.64014 12.7836 4.49349 12.4297C4.34684 12.0757 4.27136 11.6964 4.27136 11.3133C4.27136 10.9301 4.34684 10.5508 4.49349 10.1968C4.64014 9.84288 4.85509 9.5213 5.12605 9.25045L9.25022 5.12628C9.52107 4.85532 9.84265 4.64037 10.1966 4.49372C10.5505 4.34707 10.9299 4.27159 11.313 4.27159C11.6962 4.27159 12.0755 4.34707 12.4295 4.49372C12.7834 4.64037 13.105 4.85532 13.3758 5.12628L18.0163 9.7667L22.3533 5.42815C22.7596 5.02182 23.2419 4.69949 23.7728 4.47958C24.3036 4.25967 24.8726 4.14648 25.4472 4.14648C26.0218 4.14648 26.5908 4.25967 27.1216 4.47958C27.6525 4.69949 28.1348 5.02182 28.5411 5.42815ZM23.1715 19.0475L19.0473 23.1717L19.5621 23.6879L20.5931 22.6569C20.855 22.3926 21.2079 22.2383 21.5798 22.2257C21.9516 22.2131 22.3142 22.3431 22.5934 22.589C22.8725 22.835 23.0471 23.1784 23.0813 23.5489C23.1156 23.9193 23.007 24.2889 22.7777 24.5819L22.6567 24.719L21.6256 25.75L23.6877 27.8121L27.8119 23.6879L23.1715 19.0475ZM21.3223 10.5834L8.55459 23.3511L8.07189 26.9284L11.6492 26.4442L24.4169 13.6779L21.3223 10.5834ZM11.3123 7.18982L7.18959 11.3125L9.25168 13.3761L10.2827 12.345C10.5446 12.0807 10.8975 11.9264 11.2694 11.9138C11.6412 11.9012 12.0038 12.0312 12.2829 12.2772C12.5621 12.5231 12.7367 12.8665 12.7709 13.237C12.8052 13.6075 12.6966 13.977 12.4673 14.27L12.3448 14.4071L11.3138 15.4382L11.83 15.9529L15.9542 11.8288L11.3123 7.18982ZM24.4169 7.4917L23.3858 8.52274L26.4775 11.6159L27.51 10.5848C27.7834 10.3113 27.937 9.94048 27.937 9.55378C27.937 9.16708 27.7834 8.79622 27.51 8.52274L26.479 7.4917C26.2055 7.2183 25.8346 7.06472 25.4479 7.06472C25.0612 7.06472 24.6904 7.2183 24.4169 7.4917Z" fill="#8D7FD4"/>
</svg>
